<?xml version="1.0" encoding="UTF-8"?>
<svg width="128pt" height="128pt" version="1.1" viewBox="0 0 128 128" xmlns="http://www.w3.org/2000/svg">
 <g fill="#fff">
  <path d="m120.18 62.504c0-30.977-25.199-56.176-56.176-56.176-30.977-0.003906-56.176 25.199-56.176 56.176 0 16.16 6.8633 30.742 17.82 41-0.24609 0.21875-0.4375 0.50391-0.54297 0.82812-0.22266 0.69141-0.039062 1.4492 0.48438 1.957l5.5977 5.4531-1.3203 7.7031c-0.12109 0.71484 0.17188 1.4375 0.75781 1.8672 0.58984 0.42578 1.3672 0.48438 2.0078 0.14453l6.918-3.6367 6.918 3.6367c0.27734 0.14844 0.58594 0.21875 0.88672 0.21875 0.39453 0 0.78906-0.12109 1.1211-0.36328 0.58594-0.42578 0.88281-1.1484 0.75781-1.8672l-0.49219-2.8789c1.9102 0.53906 3.8594 0.98047 5.8477 1.3164l-0.26953 1.5625c-0.12109 0.71484 0.17188 1.4375 0.75781 1.8672 0.33203 0.24219 0.72656 0.36328 1.1211 0.36328 0.30469 0 0.60938-0.074219 0.88672-0.21875l5.3281-2.8008c0.52734 0.015625 1.0586 0.027344 1.5898 0.027344s1.0625-0.011719 1.5898-0.027344l5.3281 2.8008c0.64453 0.33984 1.4219 0.28125 2.0078-0.14453 0.58594-0.42578 0.88281-1.1484 0.75781-1.8672l-0.26953-1.5625c1.9844-0.33594 3.9375-0.77734 5.8477-1.3164l-0.49219 2.8789c-0.12109 0.71484 0.17188 1.4375 0.75781 1.8672 0.58984 0.42578 1.3672 0.48438 2.0078 0.14453l6.918-3.6367 6.918 3.6367c0.27734 0.14844 0.58594 0.21875 0.88672 0.21875 0.39453 0 0.78906-0.12109 1.1211-0.36328 0.58594-0.42578 0.88281-1.1484 0.75781-1.8672l-1.2969-7.5625 5.4062-4.1836c0.56641-0.4375 0.83984-1.1602 0.70703-1.8633-0.13281-0.70313-0.65234-1.2773-1.3398-1.4766l-0.14844-0.042969c11.477-10.293 18.711-25.223 18.711-41.812zm-75.648 47.207c-0.44922 0.4375-0.65625 1.0703-0.54688 1.6875l0.83594 4.8828-4.3828-2.3047c-0.27734-0.14453-0.58203-0.21875-0.88672-0.21875s-0.60938 0.074219-0.88672 0.21875l-4.3828 2.3047 0.83594-4.8828c0.10547-0.61719-0.097656-1.25-0.54688-1.6875l-3.5469-3.457 4.9023-0.71094c0.62109-0.089844 1.1562-0.48047 1.4375-1.043l2.1914-4.4414 2.1914 4.4414c0.27734 0.5625 0.81641 0.95312 1.4375 1.043l4.9023 0.71094zm-24.48-47.207c0-24.234 19.719-43.953 43.953-43.953s43.953 19.719 43.953 43.953c0 13.973-6.5586 26.438-16.754 34.492l-1.0352-2.0938c-0.32031-0.65234-0.98437-1.0625-1.7109-1.0625s-1.3906 0.41406-1.7109 1.0625l-3.4609 7.0078-7.0586 1.0273-7.0586-1.0273-3.457-7.0078c-0.32031-0.65234-0.98438-1.0625-1.7109-1.0625-0.72656 0-1.3906 0.41406-1.7109 1.0625l-3.4609 7.0078-7.0586 1.0273-7.0586-1.0273-3.4531-7.0117c-0.32031-0.65234-0.98438-1.0625-1.7109-1.0625-0.72656 0-1.3906 0.41406-1.7109 1.0625l-1.0352 2.0938c-10.191-8.0547-16.75-20.52-16.75-34.488zm35.18 51.617c-2.4688-0.41797-4.875-1.0078-7.2148-1.7578l-0.10547-0.62109 3.3008-3.2188c0.51172 0.14062 1.0234 0.27734 1.5391 0.40234l2.8867 2.8164zm13.758-4.4102c-0.44922 0.4375-0.65625 1.0703-0.55078 1.6875l0.83594 4.8828-4.3828-2.3047c-0.55469-0.29297-1.2188-0.29297-1.7734 0l-4.3867 2.3047 0.83594-4.8828c0.10547-0.61719-0.097656-1.25-0.54688-1.6875l-3.5469-3.457 4.9023-0.71094c0.62109-0.089844 1.1562-0.48047 1.4375-1.043l2.1914-4.4414 2.1914 4.4414c0.27734 0.5625 0.81641 0.95312 1.4375 1.043l4.9023 0.71094zm11 2.6523c-2.3398 0.75-4.7461 1.3398-7.2148 1.7578l-0.41016-2.3828 2.8867-2.8164c0.51562-0.125 1.0312-0.25781 1.5391-0.40234l3.3008 3.2188zm13.621-2.7969c-0.55859 0.42969-0.83203 1.1367-0.71484 1.832l0.83594 4.8828-4.3828-2.3047c-0.27734-0.14453-0.58203-0.21875-0.88672-0.21875-0.30469 0-0.60938 0.074219-0.88672 0.21875l-4.3828 2.3047 0.83594-4.8828c0.10547-0.61719-0.097657-1.25-0.54688-1.6875l-3.5469-3.457 4.9023-0.71094c0.62109-0.089844 1.1562-0.48047 1.4375-1.043l2.1914-4.4414 2.1914 4.4414c0.23438 0.48047 0.66406 0.83594 1.1797 0.98828l5.1289 1.4922zm3.4883-6.5234-3.3945-0.98828-0.77344-1.5703c11.445-8.7344 18.844-22.508 18.844-37.984 0-26.34-21.43-47.766-47.766-47.766-26.34 0-47.77 21.43-47.77 47.766 0 15.477 7.4023 29.25 18.844 37.984l-0.70312 1.4258-4.1133 0.59766c-11.379-9.6133-18.625-23.977-18.625-40.004 0-28.871 23.488-52.363 52.363-52.363 28.871 0 52.363 23.488 52.363 52.363 0 16.328-7.5195 30.93-19.27 40.539z"/>
  <path d="m94.121 57.207c1.2422-1.2148 2.0117-2.9062 2.0117-4.7773 0-3.6836-3-6.6836-6.6836-6.6836h-15.078v-10.414c0-4.5547-3.707-8.2617-8.2617-8.2617s-8.2617 3.707-8.2578 8.3281c0.003907 0.054687 0.20313 5.7422 0.003907 8.6328-0.10938 1.5898-3.5352 6.4141-7.8594 8.8359-1.5703-2.0625-4.0508-3.3945-6.8398-3.3945h-3.1758c-4.7383 0-8.5977 3.8555-8.5977 8.5938v21.941c0 4.7383 3.8555 8.5977 8.5977 8.5977h3.1758c2.6836 0 5.0781-1.2344 6.6562-3.1641 2.0195 1.4648 4.4961 2.332 7.1758 2.332h32.461c3.6836 0 6.6836-3 6.6836-6.6836 0-1.8711-0.77344-3.5625-2.0117-4.7773 1.2422-1.2148 2.0117-2.9062 2.0117-4.7773s-0.77344-3.5625-2.0117-4.7773c1.2422-1.2148 2.0117-2.9062 2.0117-4.7773 0-1.8672-0.77344-3.5586-2.0117-4.7734zm-11.477 1.9062h6.8047c1.582 0 2.8711 1.2852 2.8711 2.8711 0 1.582-1.2852 2.8711-2.8711 2.8711h-6.8047c-1.0547 0-1.9062 0.85547-1.9062 1.9062 0 1.0547 0.85547 1.9062 1.9062 1.9062h6.8047c1.582 0 2.8711 1.2852 2.8711 2.8711 0 1.582-1.2852 2.8711-2.8711 2.8711h-6.8047c-1.0547 0-1.9062 0.85547-1.9062 1.9062 0 1.0547 0.85547 1.9062 1.9062 1.9062h6.8047c1.582 0 2.8711 1.2852 2.8711 2.8711 0 1.582-1.2852 2.8711-2.8711 2.8711l-32.461-0.003906c-2.082 0-3.9844-0.75781-5.4609-2.0078 0.14453-0.625 0.22266-1.2734 0.22266-1.9375v-21.941c0-0.58984-0.058594-1.1641-0.17188-1.7188 5.5586-2.9688 9.8672-8.9727 10.082-12.051 0.21484-3.0898 0.011719-8.7969 0.003906-8.9688 0-2.4531 1.9961-4.4453 4.4453-4.4453 2.4531 0 4.4453 1.9961 4.4453 4.4453v14.23h18.895c1.582 0 2.8711 1.2852 2.8711 2.8711 0 1.582-1.2852 2.8711-2.8711 2.8711h-6.8047c-1.0547 0-1.9062 0.85547-1.9062 1.9062-0.003906 1.0469 0.85156 1.8984 1.9062 1.8984z"/>
 </g>
</svg>
