<?xml version="1.0" encoding="UTF-8"?>
<svg width="128pt" height="128pt" version="1.1" viewBox="0 0 128 128" xmlns="http://www.w3.org/2000/svg">
 <g fill="#2f2f2f">
  <path d="m100.12 93.824 8.6602 15.047-6.9844-0.74219c-0.72656-0.082031-1.4297 0.32422-1.7266 0.99219l-2.8945 6.5391-9.7656-16.852c0.45312-0.17188 0.91016-0.37109 1.3867-0.62109 1.6523-0.88281 3.4531-1.6289 5.668-1.6953 2.7695-0.074219 4.3086-0.81641 5.6562-2.668zm-30.34-0.015625c1.3477 1.8672 2.8984 2.6055 5.668 2.6836 2.2148 0.066406 4.0508 0.73828 5.6719 1.6953 0.42187 0.24609 0.82812 0.44531 1.2305 0.60547l-9.6523 16.848-2.8867-6.5195c-0.29688-0.66797-1-1.0742-1.7344-0.99219l-6.9844 0.74219zm23.184-38.762c1.793 1.8906 3.6445 3.1133 6.2383 3.9727 1.8203 0.59766 2.5273 1.168 2.957 3.4141 0.51953 2.7266 1.3398 4.5938 3.082 6.7773 1.0508 1.3203 1.4727 2.4453 0.63672 4.4062-1.0078 2.3789-1.2461 4.6836-1.0312 7.3867 0.14844 1.8945 0.035156 2.7578-1.8477 4.0664-2.3281 1.6289-3.6211 3.0312-4.918 5.6133-0.74609 1.4883-1.6758 2.3867-3.8008 2.4219-2.8047 0.054687-4.7773 0.52734-7.1523 2.1211-1.7188 1.1562-2.9727 0.80469-4.3477 0-2.4648-1.4453-4.3477-2.0664-7.1562-2.1211-2.125-0.035157-3.0508-0.92969-3.7969-2.4219-1.2969-2.5859-2.5859-3.9844-4.918-5.6133-1.875-1.3086-1.9922-2.168-1.8438-4.0664 0.21484-2.7031-0.015625-5.0078-1.0312-7.3867-0.82812-1.9609-0.41406-3.0898 0.63672-4.4062 1.7422-2.1836 2.5625-4.0547 3.0898-6.7773 0.42188-2.2461 1.1367-2.8164 2.9492-3.4141 2.5898-0.85938 4.4492-2.0742 6.2383-3.9727 1.4141-1.5117 2.7031-1.6758 4.332-1.3047 2.668 0.61719 4.9844 0.53906 7.3633 0 1.832-0.41406 3.332 0.25 4.3203 1.3047zm-2.9023-4.9805c-0.67578 0.007813-1.3945 0.125-2.1641 0.35547-2.0938 0.62891-4.082 0.42188-5.8867 0-0.78516-0.1875-1.5039-0.28906-2.1797-0.29688-2.0352-0.011719-3.6875 0.82422-5.3125 2.5352-1.5977 1.6914-3.0586 2.4883-4.9492 3.1562-3.082 1.082-4.5625 2.918-5.1484 5.9258-0.44531 2.2891-1.1914 3.8086-2.4453 5.4102-2.0078 2.5625-2.2656 4.8281-1.125 7.6797 0.85156 2.125 0.99219 3.918 0.82422 5.9102-0.27344 3.2148 0.75391 5.332 3.2305 7.0664 1.1836 0.83203 2.082 1.7617 2.8203 2.7617l-11.242 19.484c-0.69531 1.1992 0.26562 2.6875 1.6445 2.543l9.082-0.96484 3.75 8.4531c0.5625 1.2656 2.3242 1.3555 3.0117 0.15625l10.914-19.031 11.023 19.035c0.69531 1.2031 2.4531 1.1055 3.0156-0.16406l3.7461-8.4531 9.082 0.96484c1.3789 0.14844 2.3398-1.3398 1.6445-2.543l-11.223-19.469c0.74219-1.0078 1.6484-1.9414 2.8398-2.7773 2.4727-1.7344 3.4961-3.8516 3.2227-7.0664-0.17188-1.9922-0.03125-3.7852 0.82031-5.9102 1.1406-2.8516 0.89062-5.1211-1.125-7.6797-1.2539-1.6016-2-3.1172-2.4375-5.4102-0.58594-3.0078-2.0703-4.8438-5.1484-5.9258-1.8945-0.66406-3.3477-1.4648-4.9492-3.1562-1.6328-1.707-3.3047-2.625-5.3359-2.5898z"/>
  <path d="m81.945 61.812c-2.6641 0.62891-5.1406 2.0898-7.0078 4.2891-3.7344 4.3945-4.2383 10.742-1.25 15.691 2.9844 4.9492 8.8047 7.3828 14.379 6 5.5625-1.3945 9.5938-6.2812 9.9844-12.07 0.125-0.96094-0.59375-1.8281-1.5625-1.8867-0.96094-0.066407-1.7852 0.70312-1.793 1.6758-0.28906 4.3555-3.3047 7.9766-7.4453 9.0156-4.1328 1.0312-8.4453-0.76172-10.684-4.4727-2.2344-3.7188-1.8516-8.4727 0.94922-11.77 2.793-3.2969 7.3125-4.3633 11.238-2.668 0.85156 0.37109 1.8438-0.019532 2.2148-0.875 0.37109-0.85156-0.023438-1.8438-0.875-2.2148-2.6328-1.1406-5.4844-1.3438-8.1484-0.71484z" fill-rule="evenodd"/>
  <path d="m97.289 64.289c-0.4375 0.007813-0.85937 0.1875-1.1602 0.49609l-11.621 11.414-3.1406-3.1328c-1.5938-1.5938-3.9727 0.80078-2.3789 2.3867l3.5781 3.5781c1.043 1.043 2.8008 1.0352 3.8594 0l12.059-11.844c1.0938-1.0586 0.33203-2.9219-1.1953-2.8984z" fill-rule="evenodd"/>
  <path d="m39.504 7.1641c-0.46875 0-0.91016 0.20703-1.2148 0.55469l-23.496 27.008c-0.25781 0.29688-0.39844 0.66797-0.39844 1.0625v83.422c0 0.89844 0.71875 1.6211 1.6172 1.6172h47c0.91797 0.042969 1.6914-0.69141 1.6914-1.6094s-0.77344-1.6523-1.6914-1.6172l-45.395-0.003906v-80.203h24.734c0.88672-0.007812 1.5977-0.71875 1.6055-1.6055v-18.477c0.007813-0.90625-0.72656-1.6367-1.6289-1.6289-0.89062 0.007812-1.6016 0.74219-1.5938 1.6289v16.859h-21.195l20.695-23.785h54.57v35.238c-0.007813 0.90625 0.71875 1.6367 1.6211 1.6367 0.89453 0 1.6289-0.73438 1.6172-1.6367l0.003906-36.836c0-0.89844-0.72656-1.625-1.6172-1.625z" fill-rule="evenodd"/>
  <path d="m29.898 65.297c-2.1484 0-1.9922 3.2227 0.15625 3.2227h22.156c2.2344 0 2.2344-3.2383 0-3.2227-6.8477 0.046875-16.168 0-22.312 0z"/>
  <path d="m29.898 79.711c-2.1484 0-1.9922 3.2227 0.15625 3.2227h22.156c2.2344 0 2.2344-3.2383 0-3.2227-6.8477 0.039062-16.168 0-22.312 0z"/>
  <path d="m29.898 94.125c-2.1484 0-1.9922 3.2227 0.15625 3.2227h22.156c2.2344 0 2.2344-3.2383 0-3.2227-6.8477 0.046875-16.168 0-22.312 0z"/>
  <path d="m29.898 50.883c-2.1484 0-1.9922 3.2227 0.15625 3.2227h29.383c2.2383 0 2.2383-3.2383 0-3.2227-6.8516 0.035157-23.395 0-29.539 0z"/>
 </g>
</svg>
