<?xml version="1.0" encoding="UTF-8"?>
<svg width="1200pt" height="1200pt" version="1.1" viewBox="0 0 1200 1200" xmlns="http://www.w3.org/2000/svg">
 <path d="m600 3.8359c-329.22 0-596.15 266.9-596.15 596.16s266.93 596.16 596.15 596.16c329.23 0 596.16-266.9 596.16-596.16s-266.93-596.16-596.16-596.16zm342.64 345.59-342.64 274.09-342.64-274.09c4.0742-1.1875 681.28-1.1875 685.29 0zm-715.18 29.262 244.68 209.52-244.48 234.75c-1.4883-4.5742-1.5938-439.98-0.19531-444.27zm30.461 472.97 246.84-218.9 95.234 77.5 95.395-77.629 246.77 219.02c-3.9453 1.0938-680.35 1.0938-684.24 0.011719zm714.39-28.695-244.34-234.86 244.6-209.42c1.3867 4.2969 1.332 439.7-0.26172 444.27z" fill="#fff"/>
</svg>
