<?xml version="1.0" encoding="UTF-8"?>
<svg width="128pt" height="128pt" version="1.1" viewBox="0 0 128 128" xmlns="http://www.w3.org/2000/svg">
 <path d="m112.25 92.613-14.336 16.828c-0.57031 0.66797-1.3906 1.0625-2.2656 1.0859-0.027344 0.003906-0.058594 0.003906-0.09375 0.003906-0.83984 0-1.6445-0.34375-2.2266-0.94531l-8.4531-8.7852c-1.1797-1.2305-1.1445-3.1875 0.082032-4.375 1.2422-1.1836 3.1992-1.1484 4.3789 0.085938l6.0859 6.3203 12.113-14.227c1.1055-1.3008 3.0586-1.457 4.3633-0.35156 1.2969 1.1055 1.4453 3.0586 0.35156 4.3594zm-13.23 28.312c12.082 0 21.898-9.8281 21.898-21.902 0-12.078-9.8164-21.902-21.898-21.902-12.082 0-21.898 9.8242-21.898 21.902 0 12.074 9.8203 21.902 21.898 21.902zm-89.391-40.035c2.8711 2.5117 6.3984 4.8281 10.566 6.8867 4.3867 2.1758 9.3242 3.9844 14.637 5.3984 1.4141 5.3125 3.2227 10.242 5.3945 14.641 2.0664 4.1602 4.3789 7.6914 6.8867 10.559-17.828-5.5586-31.93-19.656-37.484-37.484zm37.484-71.258c-2.5117 2.8633-4.8242 6.3945-6.8867 10.555-2.168 4.3984-3.9805 9.3281-5.3945 14.641-5.3125 1.4141-10.25 3.2227-14.637 5.3984-4.168 2.0586-7.6953 4.375-10.566 6.8828 5.5547-17.828 19.656-31.926 37.484-37.477zm71.25 37.48c-2.8594-2.5078-6.3984-4.8281-10.551-6.8828-4.4023-2.1758-9.3281-3.9844-14.637-5.3984-1.4141-5.3125-3.2227-10.242-5.3945-14.641-2.0664-4.1602-4.3789-7.6914-6.8867-10.555 17.824 5.5469 31.926 19.645 37.469 37.477zm-21.605 19.98h23.754c-0.92188 3.5039-3.3008 6.4531-5.7344 8.6875-4.4922-3.0586-9.9219-4.8516-15.758-4.8516-0.81641 0-1.6211 0.039062-2.4258 0.10547 0.082032-1.3086 0.125-2.6211 0.16406-3.9414zm-24.445 23.223c2.7773-8.4961 9.5039-15.227 18-18 0.11719-1.7266 0.21094-3.4688 0.25781-5.2188h-23.477v23.473c1.7539-0.050781 3.4922-0.13672 5.2188-0.25391zm-5.2148 30.199v-23.762c1.3164-0.03125 2.625-0.082031 3.9453-0.15625-0.070313 0.79688-0.10547 1.6094-0.10547 2.4258 0 5.8398 1.7852 11.262 4.8438 15.762-2.2305 2.4258-5.1836 4.8008-8.6836 5.7305zm-6.1875-23.758c-6.6523-0.16406-13.109-0.84766-19.203-2.0156 1.1445 3.707 2.4961 7.1719 4.0625 10.324 4.2109 8.5 9.5938 13.945 15.141 15.438zm-23.477-29.664c0.1875 7.332 1.0391 14.402 2.4961 20.922 6.457 1.457 13.551 2.3555 20.977 2.5508l0.003906-23.473zm-6.1875 0h-23.766c2.0664 7.918 11.93 14.898 25.773 19.152-1.1641-6.0742-1.8438-12.523-2.0078-19.152zm0-6.1875c0.16406-6.6289 0.84375-13.078 2.0078-19.152-13.844 4.2578-23.707 11.234-25.773 19.152zm29.664-23.473c-7.3984 0.19531-14.484 1.0938-20.93 2.5391-1.4609 6.4492-2.3438 13.527-2.543 20.934h23.477zm0-29.953c-7.9141 2.0664-14.895 11.926-19.156 25.77 6.0703-1.1641 12.523-1.8438 19.156-2.0039zm6.1875 23.766c6.6289 0.16406 13.074 0.84375 19.156 2.0039-4.2617-13.844-11.246-23.703-19.156-25.77zm23.473 29.66c-0.19922-7.4023-1.0977-14.48-2.543-20.934-6.4531-1.4492-13.531-2.3438-20.93-2.5391v23.473zm6.1875 0h23.766c-2.0664-7.918-11.93-14.895-25.773-19.152 1.168 6.0742 1.8438 12.523 2.0078 19.152zm30.348 3.0938c0-16.859-6.5586-32.707-18.477-44.625-11.918-11.918-27.77-18.488-44.629-18.488-16.855 0-32.707 6.5664-44.625 18.484-11.93 11.922-18.488 27.77-18.488 44.629s6.5586 32.707 18.488 44.629c11.918 11.922 27.77 18.484 44.625 18.484 7.2734 0 14.395-1.2266 21.188-3.6523 4.0859 2.3203 8.8008 3.6523 13.832 3.6523 15.492 0 28.086-12.602 28.086-28.09 0-5.0273-1.3164-9.7461-3.6406-13.836 2.418-6.793 3.6406-13.91 3.6406-21.188z" fill="#2f2f2f" fill-rule="evenodd"/>
</svg>
