<?xml version="1.0" encoding="UTF-8"?>
<svg width="512pt" height="512pt" version="1.1" viewBox="0 0 512 512" xmlns="http://www.w3.org/2000/svg">
 <g fill="#004b6a">
  <path d="m447.59 121.05-156.01 99.277-155.96-99.277c5.0703-3.6367 11.266-5.7852 17.973-5.7852h276.02c6.7109 0 12.852 2.1484 17.973 5.7852z"/>
  <path d="m236.34 270.96-50.277 67.992-0.71875 0.92188-24.32 32.922 0.71875-52.273z"/>
  <path d="m231.48 261.85-75.266 50.023-48.18-21.66 9.832-2.25 1.125-0.25781 0.30859-0.10156z"/>
  <path d="m460.8 146.49v159.74c0 6.7578-2.1523 13.055-5.8359 18.176-0.25781-0.25781-0.5625-0.51172-0.87109-0.71875l-116.17-72.598c-2.4062-1.5352-5.582-0.76953-7.0664 1.5859-1.4844 2.4062-0.76953 5.582 1.6367 7.0664l115.05 71.938c-5.0703 3.6875-11.266 5.7852-17.922 5.7852h-229.73l62.004-83.867c0.15234-0.20312 0.30859-0.46094 0.35938-0.66406 0.050781 0 0.050781-0.050781 0.050781-0.050781 0.20312-0.35938 0.30859-0.71875 0.41016-1.0742v-0.10156c0.10156-0.35938 0.15234-0.76953 0.15234-1.1758 0-0.97266-0.30859-1.9453-0.87109-2.8164-0.46094-0.71875-1.125-1.332-1.8438-1.6914-0.35938-0.20312-0.76953-0.35938-1.125-0.46094-0.66406-0.10156-1.332-0.15234-1.9961-0.050781-0.15234 0-0.25781 0-0.41016 0.050781l-134.2 30.824v-129.89c0-6.7578 2.1523-13.055 5.8867-18.176 0.20312 0.25781 0.46094 0.46094 0.76953 0.66406l159.8 101.68c0.82031 0.5625 1.793 0.82031 2.7148 0.82031 0.97266 0 1.9453-0.25781 2.7656-0.82031l159.8-101.68c0.30859-0.20312 0.5625-0.41016 0.76953-0.66406 3.7266 5.1172 5.8789 11.414 5.8789 18.172z"/>
  <path d="m64.59 341.57c-1.6953 0-3.3477-0.83594-4.3281-2.3711-1.5156-2.3867-0.8125-5.5508 1.5703-7.0703l31.906-20.316c2.3867-1.5156 5.5508-0.82031 7.0703 1.5703 1.5156 2.3867 0.8125 5.5508-1.5703 7.0703l-31.906 20.316c-0.84766 0.54297-1.8008 0.80078-2.7422 0.80078z"/>
  <path d="m100.99 356.61c-1.6953 0-3.3477-0.83984-4.3281-2.3711-1.5156-2.3867-0.8125-5.5508 1.5703-7.0703l31.914-20.312c2.3906-1.5156 5.5508-0.80859 7.0703 1.5703 1.5156 2.3867 0.8125 5.5508-1.5703 7.0703l-31.914 20.312c-0.85547 0.53906-1.8047 0.80078-2.7422 0.80078z"/>
  <path d="m56.324 384.47c-1.6953 0-3.3477-0.83984-4.3281-2.3711-1.5156-2.3867-0.8125-5.5508 1.5703-7.0703l20.547-13.078c2.3867-1.5156 5.5508-0.80859 7.0703 1.5703 1.5156 2.3867 0.8125 5.5508-1.5703 7.0703l-20.547 13.078c-0.84766 0.53906-1.8008 0.80078-2.7422 0.80078z"/>
  <path d="m100.3 396.74c-1.6953 0-3.3477-0.83594-4.3281-2.3711-1.5156-2.3867-0.8125-5.5508 1.5703-7.0703l31.906-20.312c2.3867-1.5156 5.5508-0.82031 7.0703 1.5703 1.5156 2.3867 0.8125 5.5508-1.5703 7.0703l-31.906 20.312c-0.84766 0.53906-1.8008 0.80078-2.7422 0.80078z"/>
 </g>
</svg>
