<?xml version="1.0" encoding="UTF-8"?>
<svg width="128pt" height="128pt" version="1.1" viewBox="0 0 128 128" xmlns="http://www.w3.org/2000/svg">
 <g fill="#2f2f2f">
  <path d="m113.96 108.64c-2.5977 0-3.9609 1.3047-5.0547 2.3516-0.99219 0.95703-1.7109 1.6445-3.2773 1.6445-1.5703 0-2.2852-0.6875-3.2812-1.6406-1.0938-1.0469-2.4531-2.3516-5.0547-2.3516-2.5977 0-3.957 1.3047-5.0508 2.3516-0.99219 0.95312-1.707 1.6406-3.2773 1.6406-1.5664 0-2.2812-0.6875-3.2734-1.6406-1.0938-1.0469-2.4531-2.3555-5.0469-2.3555-2.5977 0-3.957 1.3047-5.0469 2.3555-0.99219 0.95312-1.7109 1.6406-3.2773 1.6406-1.5664 0-2.2812-0.6875-3.2734-1.6406-1.0938-1.0469-2.4531-2.3555-5.0469-2.3555s-3.9531 1.3047-5.0469 2.3555c-0.99609 0.95312-1.7109 1.6406-3.2773 1.6406-1.5664 0-2.2812-0.6875-3.2734-1.6406-1.0938-1.0469-2.4531-2.3555-5.0469-2.3555s-3.9531 1.3047-5.0469 2.3555c-0.99219 0.95312-1.7109 1.6406-3.2734 1.6406s-2.2812-0.6875-3.2695-1.6406c-1.0898-1.0469-2.4492-2.3555-5.043-2.3555s-3.9531 1.3047-5.0469 2.3555c-0.99609 0.95312-1.7109 1.6406-3.2773 1.6406s-2.2812-0.6875-3.2734-1.6406c-1.0938-1.0469-2.4531-2.3555-5.0508-2.3555-0.70703 0-1.2812 0.57422-1.2812 1.2812s0.57422 1.2812 1.2812 1.2812c1.5664 0 2.2812 0.6875 3.2734 1.6406 1.0977 1.0469 2.4531 2.3516 5.0508 2.3516 2.5938 0 3.9531-1.3047 5.0469-2.3555 0.99219-0.95312 1.707-1.6406 3.2734-1.6406 1.5625 0 2.2812 0.6875 3.2695 1.6406 1.0938 1.0508 2.4531 2.3555 5.0469 2.3555s3.9531-1.3047 5.0469-2.3555c0.99219-0.95312 1.707-1.6406 3.2734-1.6406s2.2812 0.6875 3.2734 1.6406c1.0938 1.0508 2.4531 2.3555 5.0469 2.3555s3.9531-1.3047 5.0469-2.3555c0.99219-0.95312 1.707-1.6406 3.2734-1.6406s2.2812 0.6875 3.2734 1.6406c1.0977 1.0508 2.457 2.3555 5.0508 2.3555 2.5977 0 3.957-1.3047 5.0469-2.3555 0.99219-0.95312 1.7109-1.6406 3.2773-1.6406 1.5664 0 2.2812 0.6875 3.2734 1.6406 1.0938 1.0508 2.4531 2.3555 5.0469 2.3555 2.5977 0 3.957-1.3047 5.0508-2.3516 0.99219-0.95312 1.7109-1.6406 3.2773-1.6406 1.5703 0 2.2891 0.6875 3.2812 1.6406 1.0938 1.0469 2.457 2.3516 5.0547 2.3516 2.5977 0 3.957-1.3047 5.0508-2.3516 0.99609-0.95312 1.7109-1.6406 3.2812-1.6406 0.70703 0 1.2812-0.57422 1.2812-1.2812s-0.57422-1.2812-1.2812-1.2812z"/>
  <path d="m113.96 99.242c-2.5977 0-3.9609 1.3047-5.0547 2.3516-0.99219 0.95312-1.7109 1.6406-3.2812 1.6406-1.5703 0-2.2852-0.6875-3.2812-1.6406-1.0938-1.0469-2.4531-2.3516-5.0547-2.3516-2.5977 0-3.957 1.3047-5.0508 2.3516-0.99219 0.95312-1.7109 1.6406-3.2773 1.6406s-2.2812-0.6875-3.2734-1.6406c-1.0938-1.0469-2.4531-2.3555-5.0469-2.3555-2.5977 0-3.957 1.3047-5.0469 2.3555-0.99219 0.95312-1.7109 1.6406-3.2773 1.6406-1.5664 0-2.2812-0.6875-3.2734-1.6406-1.0938-1.0469-2.4531-2.3555-5.0469-2.3555s-3.9531 1.3047-5.0469 2.3555c-0.99219 0.95312-1.707 1.6406-3.2734 1.6406-1.5664 0-2.2812-0.6875-3.2734-1.6406-1.0938-1.0469-2.4531-2.3555-5.0469-2.3555s-3.9531 1.3047-5.0469 2.3555c-0.99219 0.95312-1.707 1.6406-3.2734 1.6406-1.5625 0-2.2812-0.6875-3.2695-1.6406-1.0898-1.0469-2.4492-2.3555-5.043-2.3555s-3.9531 1.3047-5.0469 2.3555c-0.99219 0.95312-1.707 1.6406-3.2734 1.6406s-2.2812-0.6875-3.2734-1.6406c-1.0977-1.0469-2.457-2.3516-5.0547-2.3516-0.70703 0-1.2812 0.57422-1.2812 1.2812 0 0.70703 0.57422 1.2812 1.2812 1.2812 1.5664 0 2.2812 0.6875 3.2734 1.6406 1.0938 1.0469 2.4531 2.3555 5.0469 2.3555s3.9531-1.3047 5.0469-2.3555c0.99219-0.95312 1.707-1.6406 3.2734-1.6406 1.5625 0 2.2812 0.6875 3.2695 1.6406 1.0898 1.0469 2.4492 2.3555 5.043 2.3555s3.9531-1.3047 5.0469-2.3555c0.99219-0.95312 1.707-1.6406 3.2734-1.6406 1.5664 0 2.2812 0.6875 3.2734 1.6406 1.0938 1.0469 2.4531 2.3555 5.0469 2.3555s3.9531-1.3047 5.0469-2.3555c0.99219-0.95312 1.707-1.6406 3.2734-1.6406 1.5664 0 2.2812 0.6875 3.2734 1.6406 1.0938 1.0469 2.4531 2.3555 5.0469 2.3555 2.5977 0 3.957-1.3047 5.0469-2.3555 0.99219-0.95312 1.7109-1.6406 3.2773-1.6406 1.5664 0 2.2812 0.6875 3.2734 1.6406 1.0938 1.0469 2.4531 2.3555 5.0469 2.3555 2.5977 0 3.957-1.3047 5.0508-2.3516 0.99219-0.95312 1.7109-1.6406 3.2773-1.6406 1.5703 0 2.2891 0.6875 3.2812 1.6406 1.0938 1.0469 2.4531 2.3516 5.0508 2.3516 2.5977 0 3.957-1.3047 5.0508-2.3516 0.99609-0.95312 1.7109-1.6406 3.2812-1.6406 0.70703 0 1.2812-0.57422 1.2812-1.2812 0.015625-0.71484-0.55859-1.2852-1.2656-1.2852z"/>
  <path d="m60.305 32.27h-6.1094c-0.70703 0-1.2812 0.57422-1.2812 1.2812v11.016c0 0.70703 0.57422 1.2812 1.2812 1.2812h6.1094c0.70703 0 1.2812-0.57422 1.2812-1.2812v-11.016c0-0.70703-0.57422-1.2812-1.2812-1.2812zm-1.2812 11.016h-3.5508v-8.4531h3.5508z"/>
  <path d="m71.852 32.27h-6.1094c-0.70703 0-1.2812 0.57422-1.2812 1.2812v11.016c0 0.70703 0.57422 1.2812 1.2812 1.2812h6.1094c0.70703 0 1.2812-0.57422 1.2812-1.2812v-11.016c-0.003906-0.70703-0.57422-1.2812-1.2812-1.2812zm-1.2812 11.016h-3.5508v-8.4531h3.5508z"/>
  <path d="m60.305 49.895h-6.1094c-0.70703 0-1.2812 0.57422-1.2812 1.2812v11.016c0 0.70703 0.57422 1.2812 1.2812 1.2812h6.1094c0.70703 0 1.2812-0.57422 1.2812-1.2812v-11.016c0-0.70703-0.57422-1.2812-1.2812-1.2812zm-1.2812 11.016h-3.5508v-8.4531h3.5508z"/>
  <path d="m71.852 49.895h-6.1094c-0.70703 0-1.2812 0.57422-1.2812 1.2812v11.016c0 0.70703 0.57422 1.2812 1.2812 1.2812h6.1094c0.70703 0 1.2812-0.57422 1.2812-1.2812v-11.016c-0.003906-0.70703-0.57422-1.2812-1.2812-1.2812zm-1.2812 11.016h-3.5508v-8.4531h3.5508z"/>
  <path d="m60.305 67.52h-6.1094c-0.70703 0-1.2812 0.57422-1.2812 1.2812v11.016c0 0.70703 0.57422 1.2812 1.2812 1.2812h6.1094c0.70703 0 1.2812-0.57422 1.2812-1.2812v-11.016c0-0.70703-0.57422-1.2812-1.2812-1.2812zm-1.2812 11.016h-3.5508v-8.457h3.5508z"/>
  <path d="m71.852 67.52h-6.1094c-0.70703 0-1.2812 0.57422-1.2812 1.2812v11.016c0 0.70703 0.57422 1.2812 1.2812 1.2812h6.1094c0.70703 0 1.2812-0.57422 1.2812-1.2812l-0.003906-11.016c0-0.70703-0.57031-1.2812-1.2773-1.2812zm-1.2812 11.016h-3.5508v-8.457h3.5508z"/>
  <path d="m95.934 37.27h-5.5898c-0.70703 0-1.2812 0.57422-1.2812 1.2812v10.078c0 0.70703 0.57422 1.2812 1.2812 1.2812h5.5898c0.70703 0 1.2812-0.57422 1.2812-1.2812v-10.078c0-0.71094-0.57422-1.2812-1.2812-1.2812zm-1.2773 10.078h-3.0312v-7.5156h3.0312z"/>
  <path d="m106.5 37.27h-5.5938c-0.70703 0-1.2812 0.57422-1.2812 1.2812v10.078c0 0.70703 0.57422 1.2812 1.2812 1.2812h5.5938c0.70703 0 1.2812-0.57422 1.2812-1.2812v-10.078c0-0.71094-0.57422-1.2812-1.2812-1.2812zm-1.2773 10.078h-3.0312v-7.5156h3.0312z"/>
  <path d="m95.934 53.395h-5.5898c-0.70703 0-1.2812 0.57422-1.2812 1.2812v10.078c0 0.70703 0.57422 1.2812 1.2812 1.2812h5.5898c0.70703 0 1.2812-0.57422 1.2812-1.2812v-10.078c0-0.71094-0.57422-1.2812-1.2812-1.2812zm-1.2773 10.078h-3.0312v-7.5156h3.0312z"/>
  <path d="m106.5 53.395h-5.5938c-0.70703 0-1.2812 0.57422-1.2812 1.2812v10.078c0 0.70703 0.57422 1.2812 1.2812 1.2812h5.5938c0.70703 0 1.2812-0.57422 1.2812-1.2812v-10.078c0-0.71094-0.57422-1.2812-1.2812-1.2812zm-1.2773 10.078h-3.0312v-7.5156h3.0312z"/>
  <path d="m95.934 69.516h-5.5898c-0.70703 0-1.2812 0.57422-1.2812 1.2812v10.078c0 0.70703 0.57422 1.2812 1.2812 1.2812h5.5898c0.70703 0 1.2812-0.57422 1.2812-1.2812v-10.078c0-0.70703-0.57422-1.2812-1.2812-1.2812zm-1.2773 10.078h-3.0312v-7.5156h3.0312z"/>
  <path d="m106.5 69.516h-5.5938c-0.70703 0-1.2812 0.57422-1.2812 1.2812v10.078c0 0.70703 0.57422 1.2812 1.2812 1.2812h5.5938c0.70703 0 1.2812-0.57422 1.2812-1.2812v-10.078c0-0.70703-0.57422-1.2812-1.2812-1.2812zm-1.2773 10.078h-3.0312v-7.5156h3.0312z"/>
  <path d="m31.676 21.734c1.3516 0.46484 2.2617 1.7266 2.2617 3.1367 0 0.70703 0.57422 1.2812 1.2812 1.2812h7.0195c0.70703 0 1.2812-0.57422 1.2812-1.2812 0-0.70703-0.57422-1.2812-1.2812-1.2812h-5.8867c-0.375-1.6641-1.4648-3.0977-2.9883-3.9062-0.29297-3.8164-3.4922-6.832-7.3789-6.832-4 0-7.2695 3.1914-7.3984 7.1641-3.1992 0.0625-5.7852 2.6836-5.7852 5.8984 0 0.70703 0.57422 1.2812 1.2812 1.2812s1.2812-0.57422 1.2812-1.2812c0-1.8398 1.4961-3.3359 3.3359-3.3359 0.28125 0 0.57812 0.046875 0.93359 0.15625 0.43359 0.12891 0.89844 0.019531 1.2305-0.28516 0.32812-0.30469 0.47656-0.76172 0.38672-1.2031-0.070312-0.32812-0.10156-0.66016-0.10156-0.98828 0-2.6719 2.1719-4.8398 4.8398-4.8398 2.6719 0 4.8398 2.1719 4.8359 4.918 0 0.011718-0.007813 0.125-0.007813 0.13672-0.027344 0.56641 0.32422 1.0781 0.85938 1.2617z"/>
  <path d="m14.078 94.336h99.84c0.70703 0 1.2812-0.57422 1.2812-1.2812 0-0.70703-0.57422-1.2812-1.2812-1.2812h-0.93359v-54.238l0.015625 0.015625c0.49219 0.50391 1.3008 0.51953 1.8086 0.023438 0.50781-0.49219 0.51562-1.3047 0.023437-1.8086l-15.5-15.926c-0.48438-0.49609-1.3516-0.49609-1.8359 0l-15.492 15.93c-0.49219 0.50781-0.48047 1.3164 0.023438 1.8086 0.25 0.24219 0.57031 0.36328 0.89062 0.36328 0.33203 0 0.66797-0.12891 0.91797-0.38672l0.015624-0.015626v54.238h-5.0273v-59.625l0.22266 0.22656c0.49219 0.50781 1.3008 0.51953 1.8086 0.023438 0.50781-0.49219 0.51562-1.3047 0.023437-1.8086l-16.941-17.406c-0.48438-0.49609-1.3516-0.49609-1.8359 0l-16.938 17.406c-0.49219 0.50781-0.48047 1.3164 0.023438 1.8086 0.25 0.24219 0.57031 0.36328 0.89062 0.36328 0.33203 0 0.66797-0.12891 0.91797-0.38672l0.22266-0.22656v59.625h-18.254v-5.5078h10.723c0.43359 0 0.83984-0.22266 1.0742-0.58594 0.23438-0.36328 0.26953-0.82422 0.089843-1.2227l-4.5898-10.148h1.1133c0.4375 0 0.84375-0.22266 1.0781-0.58984 0.23438-0.36719 0.26562-0.83203 0.082031-1.2266l-4.0781-8.7695h0.47266c0.45312 0 0.87109-0.23828 1.1016-0.62891s0.23438-0.875 0.015625-1.2695l-7.2461-13.066c-0.22656-0.40625-0.65625-0.66016-1.1211-0.66016-0.46484 0-0.89453 0.25391-1.1211 0.66016l-7.2461 13.066c-0.21875 0.39844-0.21094 0.87891 0.015625 1.2695 0.23047 0.39062 0.64844 0.62891 1.1016 0.62891h0.47266l-4.0781 8.7695c-0.18359 0.39453-0.15234 0.85938 0.082031 1.2305 0.23438 0.36719 0.64062 0.58984 1.0781 0.58984h1.1094l-4.5898 10.148c-0.17969 0.39453-0.14453 0.85547 0.089844 1.2227 0.23438 0.36328 0.64062 0.58594 1.0742 0.58594h10.723v5.5078l-12.312-0.003906c-0.70703 0-1.2812 0.57422-1.2812 1.2812 0.003906 0.70703 0.57422 1.2773 1.2812 1.2773zm13.605-42.32 5.0703 9.1445h-9.793-0.003907-0.34766zm-3.9492 11.707h7.8984l3.7344 8.0312h-15.367zm-1.8203 10.594h11.543l4.25 9.3945h-20.043zm64.5-39.41 12.008-12.336 12.008 12.336v56.871h-24.016zm-36.637-5.3867 13.242-13.605 13.242 13.605v62.258h-26.484z"/>
 </g>
</svg>
